<?xml version="1.0" encoding="utf-8"?>
<!-- Generator: Adobe Illustrator 28.4.1, SVG Export Plug-In . SVG Version: 6.00 Build 0)  -->
<svg version="1.1" id="Layer_1" xmlns="http://www.w3.org/2000/svg" xmlns:xlink="http://www.w3.org/1999/xlink" x="0px" y="0px"
	 viewBox="0 0 2400 1700" style="enable-background:new 0 0 2400 1700;" xml:space="preserve">
<style type="text/css">
	.st0{opacity:0.2;}
	.st1{fill:#A0A0A0;}
	@keyframes moveStars {
		0% {
			transform: translateY(0);
		}
		100% {
			transform: translateX(-50%); /* Adjust this value as needed */
		}
	}
	#OBJECTS {
		animation: moveStars 20s linear infinite; /* Adjust duration for speed */
	}
</style>
<g id="OBJECTS" class="st0">
	<g>
		<g>
			<g>
				<g>
					<polygon class="st1" points="2162.6,403.5 2166.6,397.5 2166.9,404.7 2173.9,406.6 2167.2,409.2 2167.5,416.4 2163,410.8 
						2156.2,413.3 2160.2,407.3 2155.6,401.6 					"/>
				</g>
			</g>
			<g>
				<g>
					<polygon class="st1" points="1866.5,422.1 1872.8,417.2 1870.6,424.9 1877.3,429.2 1869.3,429.6 1867.2,437.3 1864.4,429.8 
						1856.4,430.2 1862.6,425.2 1859.8,417.8 					"/>
				</g>
			</g>
			<g>
				<g>
					<polygon class="st1" points="1742.4,416.2 1740.3,419.8 1739.9,415.7 1735.8,414.8 1739.6,413.1 1739.2,409 1742,412.1 
						1745.8,410.4 1743.7,414 1746.5,417.1 					"/>
				</g>
			</g>
			<g>
				<g>
					<polygon class="st1" points="1066.2,620.7 1061.4,613.3 1069.6,616.5 1075.2,609.7 1074.7,618.5 1082.9,621.6 1074.4,623.9 
						1073.9,632.7 1069.1,625.3 1060.6,627.5 					"/>
				</g>
			</g>
			<g>
				<g>
					<polygon class="st1" points="1016.9,500 1014.5,497.1 1018.1,498.1 1020.2,495 1020.4,498.7 1024,499.7 1020.5,501 
						1020.7,504.8 1018.3,501.8 1014.8,503.2 					"/>
				</g>
			</g>
			<g>
				<g>
					<polygon class="st1" points="899.4,525.3 898.3,519.6 902.6,523.6 907.6,520.7 905.2,526 909.5,529.9 903.7,529.3 901.3,534.5 
						900.1,528.8 894.4,528.2 					"/>
				</g>
			</g>
			<g>
				<g>
					<polygon class="st1" points="681.3,1022.8 687.2,1016.3 686.3,1025 694.3,1028.7 685.7,1030.4 684.7,1039.2 680.3,1031.5 
						671.7,1033.3 677.6,1026.8 673.2,1019.2 					"/>
				</g>
			</g>
			<g>
				<g>
					<polygon class="st1" points="1391.8,668.3 1397.1,659.8 1397.9,669.8 1407.7,672.2 1398.3,676 1399,686.1 1392.5,678.4 
						1383.2,682.2 1388.5,673.6 1382,665.9 					"/>
				</g>
			</g>
			<g>
				<g>
					<polygon class="st1" points="800.3,475.4 795.7,482 795.5,474 787.8,471.6 795.4,469 795.3,461 800.2,467.4 807.8,464.8 
						803.1,471.4 808,477.8 					"/>
				</g>
			</g>
			<g>
				<g>
					<polygon class="st1" points="1413.1,1322.7 1416.6,1328.9 1410.1,1325.9 1405.2,1331.1 1406.1,1324.1 1399.6,1321.1 
						1406.6,1319.7 1407.5,1312.6 1410.9,1318.8 1417.9,1317.5 					"/>
				</g>
			</g>
			<g>
				<g>
					<polygon class="st1" points="977.1,566 980.1,571.7 974.3,568.8 969.7,573.4 970.7,567 964.9,564 971.3,563 972.4,556.6 
						975.3,562.4 981.7,561.4 					"/>
				</g>
			</g>
			<g>
				<g>
					<polygon class="st1" points="1808.8,428.1 1806.2,430.5 1806.9,427.1 1803.8,425.4 1807.3,424.9 1808,421.5 1809.5,424.7 
						1813,424.3 1810.4,426.7 1811.9,429.8 					"/>
				</g>
			</g>
			<g>
				<g>
					<polygon class="st1" points="1110.1,394.4 1100.7,390.8 1110.4,388.2 1110.9,378.2 1116.4,386.6 1126,384 1119.7,391.8 
						1125.2,400.2 1115.8,396.6 1109.6,404.3 					"/>
				</g>
			</g>
			<g>
				<g>
					<polygon class="st1" points="541.2,792 537.4,788.4 542.6,789.1 544.8,784.4 545.7,789.5 550.9,790.1 546.3,792.6 547.3,797.7 
						543.5,794.2 539,796.6 					"/>
				</g>
			</g>
			<g>
				<g>
					<polygon class="st1" points="690.7,994.4 692.4,991.2 692.9,994.8 696.5,995.4 693.2,997 693.8,1000.7 691.2,998 687.9,999.7 
						689.6,996.4 687.1,993.8 					"/>
				</g>
			</g>
			<g>
				<g>
					<polygon class="st1" points="611.1,634 617.4,632.7 613,637.5 616.2,643.1 610.3,640.4 606,645.1 606.7,638.7 600.8,636.1 
						607.2,634.8 607.9,628.4 					"/>
				</g>
			</g>
			<g>
				<g>
					<polygon class="st1" points="769,363.2 765.8,374 762,363.3 750.7,363.6 759.7,356.8 756,346.1 765.3,352.5 774.3,345.7 
						771,356.5 780.3,362.9 					"/>
				</g>
			</g>
			<g>
				<g>
					<polygon class="st1" points="1120.3,463.2 1132.9,464.5 1121.9,470.8 1124.5,483.2 1115.1,474.7 1104.1,481 1109.3,469.5 
						1099.9,461 1112.5,462.3 1117.7,450.8 					"/>
				</g>
			</g>
			<g>
				<g>
					<polygon class="st1" points="357,556.6 364.7,556.3 358.7,561 361.3,568.2 354.9,563.9 348.9,568.7 351,561.3 344.6,557.1 
						352.3,556.8 354.4,549.4 					"/>
				</g>
			</g>
			<g>
				<g>
					<polygon class="st1" points="10.7,408.4 2,407.5 0.1,399 0,399.3 0,416.9 4.9,421.4 3.1,412.8 					"/>
				</g>
			</g>
			<g>
				<g>
					<polygon class="st1" points="429.4,622.5 433.5,617.4 433.1,624 439.2,626.4 432.9,628 432.5,634.5 428.9,629 422.6,630.7 
						426.8,625.6 423.3,620.1 					"/>
				</g>
			</g>
			<g>
				<g>
					<polygon class="st1" points="752.7,631.2 744.7,625.4 754.6,625.4 757.7,616 760.7,625.4 770.6,625.5 762.6,631.2 765.6,640.6 
						757.6,634.8 749.6,640.6 					"/>
				</g>
			</g>
			<g>
				<g>
					<polygon class="st1" points="202.5,520.8 197.2,523.1 200.1,518.2 196.3,513.9 201.9,515.1 204.8,510.2 205.4,515.9 211,517.1 
						205.7,519.4 206.3,525.1 					"/>
				</g>
			</g>
			<g>
				<g>
					<polygon class="st1" points="427.8,653.5 435.4,658.9 426.1,658.9 423.3,667.8 420.3,659 411,659 418.5,653.5 415.6,644.7 
						423.1,650.1 430.6,644.6 					"/>
				</g>
			</g>
			<g>
				<g>
					<polygon class="st1" points="651.1,694 643.2,690.9 651.4,688.8 652,680.3 656.5,687.5 664.8,685.4 659.4,692 663.9,699.1 
						656,696 650.5,702.5 					"/>
				</g>
			</g>
			<g>
				<g>
					<polygon class="st1" points="1390.1,998.5 1388.9,988.7 1395.6,995.9 1404.6,991.8 1399.8,1000.4 1406.5,1007.6 1396.8,1005.7 
						1392,1014.3 1390.8,1004.5 1381.1,1002.6 					"/>
				</g>
			</g>
			<g>
				<g>
					<polygon class="st1" points="586.6,983.1 591.2,989.4 583.7,987 579.1,993.2 579.2,985.5 571.8,983 579.2,980.7 579.2,972.9 
						583.8,979.2 591.2,976.8 					"/>
				</g>
			</g>
			<g>
				<g>
					<polygon class="st1" points="419.3,565.3 427.8,571.4 417.4,571.4 414.2,581.3 411,571.4 400.6,571.5 409,565.4 405.7,555.5 
						414.1,561.6 422.5,555.5 					"/>
				</g>
			</g>
			<g>
				<g>
					<polygon class="st1" points="1270.6,704 1272.2,698.1 1274.4,703.8 1280.5,703.6 1275.7,707.4 1277.8,713.1 1272.7,709.7 
						1267.9,713.5 1269.6,707.6 1264.5,704.3 					"/>
				</g>
			</g>
			<g>
				<g>
					<polygon class="st1" points="196.1,426.6 192.8,420.9 198.9,423.6 203.3,418.6 202.6,425.2 208.7,427.9 202.2,429.3 
						201.6,435.9 198.2,430.2 191.7,431.6 					"/>
				</g>
			</g>
			<g>
				<g>
					<polygon class="st1" points="709.9,774.5 716.5,773.3 711.9,778.2 715.1,784 709.1,781.2 704.5,786.1 705.3,779.4 699.2,776.6 
						705.8,775.3 706.6,768.7 					"/>
				</g>
			</g>
			<g>
				<g>
					<polygon class="st1" points="1041.1,1087.8 1037.7,1091 1038.6,1086.4 1034.6,1084.2 1039.2,1083.6 1040.1,1079.1 1042,1083.3 
						1046.6,1082.8 1043.2,1085.9 1045.1,1090.1 					"/>
				</g>
			</g>
			<g>
				<g>
					<polygon class="st1" points="1226.7,498.6 1225.2,504.9 1222.7,498.9 1216.3,499.4 1221.2,495.2 1218.7,489.3 1224.2,492.7 
						1229.1,488.5 1227.6,494.7 1233.1,498.1 					"/>
				</g>
			</g>
			<g>
				<g>
					<polygon class="st1" points="458,1018.7 454.7,1017.1 458.3,1016.5 458.8,1012.8 460.5,1016.1 464.1,1015.4 461.6,1018 
						463.4,1021.3 460,1019.7 457.5,1022.4 					"/>
				</g>
			</g>
			<g>
				<g>
					<polygon class="st1" points="430.1,826 434.9,818.1 435.6,827.4 444.7,829.5 436.1,833.1 436.8,842.3 430.8,835.2 422.2,838.8 
						427.1,830.9 421,823.9 					"/>
				</g>
			</g>
			<g>
				<g>
					<polygon class="st1" points="974.7,854.5 971,856.2 972.9,852.7 970.2,849.7 974.2,850.5 976.1,847 976.6,851 980.6,851.7 
						976.9,853.4 977.4,857.4 					"/>
				</g>
			</g>
			<g>
				<g>
					<polygon class="st1" points="957.6,1062.9 963.6,1070 954.6,1067.8 949.6,1075.7 949,1066.4 939.9,1064.2 948.6,1060.7 
						947.9,1051.4 953.9,1058.5 962.5,1055 					"/>
				</g>
			</g>
			<g>
				<g>
					<polygon class="st1" points="330.1,960.6 325.9,969.9 323.8,959.9 313.7,958.8 322.6,953.8 320.5,943.8 328,950.6 336.9,945.6 
						332.7,954.9 340.2,961.7 					"/>
				</g>
			</g>
			<g>
				<g>
					<polygon class="st1" points="1278.8,1178.7 1267,1171.4 1280.9,1170.4 1284.2,1156.9 1289.5,1169.7 1303.3,1168.7 
						1292.7,1177.7 1298,1190.5 1286.2,1183.2 1275.5,1192.2 					"/>
				</g>
			</g>
			<g>
				<g>
					<polygon class="st1" points="269.9,1137.6 272.3,1128.4 275.7,1137.3 285.2,1136.8 277.8,1142.7 281.2,1151.6 273.3,1146.4 
						265.9,1152.3 268.3,1143.2 260.4,1138 					"/>
				</g>
			</g>
			<g>
				<g>
					<polygon class="st1" points="329.8,1172.6 326.3,1177.4 326.3,1171.5 320.7,1169.6 326.3,1167.8 326.4,1161.9 329.8,1166.7 
						335.5,1164.9 331.9,1169.7 335.4,1174.5 					"/>
				</g>
			</g>
			<g>
				<g>
					<polygon class="st1" points="1371.3,915.7 1365.2,919 1368.2,912.8 1363.2,908.1 1370,909 1373,902.7 1374.3,909.5 
						1381.1,910.4 1375,913.7 1376.3,920.5 					"/>
				</g>
			</g>
			<g>
				<g>
					<polygon class="st1" points="49.1,1233.8 54.7,1228 53.6,1236 60.9,1239.5 52.9,1241 51.8,1249 47.9,1241.8 40,1243.2 
						45.6,1237.4 41.8,1230.3 					"/>
				</g>
			</g>
			<g>
				<g>
					<polygon class="st1" points="1153.7,1027.7 1151.7,1033.6 1149.8,1027.7 1143.6,1027.6 1148.7,1024 1146.8,1018.1 
						1151.8,1021.8 1156.9,1018.2 1154.9,1024.1 1159.9,1027.8 					"/>
				</g>
			</g>
			<g>
				<g>
					<polygon class="st1" points="392.9,1340.6 403.4,1342.8 393.6,1347.1 394.8,1357.7 387.6,1349.8 377.8,1354.2 383.1,1345 
						376,1337.1 386.4,1339.2 391.7,1330 					"/>
				</g>
			</g>
			<g>
				<g>
					<polygon class="st1" points="346.5,1123 345.2,1118.4 348.9,1121.4 353,1118.8 351.2,1123.3 355,1126.3 350.2,1126 
						348.5,1130.5 347.2,1125.9 342.5,1125.6 					"/>
				</g>
			</g>
			<g>
				<g>
					<polygon class="st1" points="1139.3,960.9 1130.9,953.3 1142.2,954.5 1146.9,944.2 1149.2,955.3 1160.6,956.6 1150.7,962.2 
						1152.9,973.3 1144.5,965.7 1134.6,971.3 					"/>
				</g>
			</g>
			<g>
				<g>
					<polygon class="st1" points="481.5,1031.1 490.7,1031.7 483,1036.6 485.3,1045.4 478.2,1039.6 470.5,1044.5 473.8,1036 
						466.7,1030.3 475.9,1030.8 479.2,1022.3 					"/>
				</g>
			</g>
			<g>
				<g>
					<polygon class="st1" points="624.4,855 623.7,848.1 628.3,853.3 634.7,850.5 631.2,856.5 635.8,861.6 629.1,860.1 625.6,866.1 
						624.9,859.3 618.1,857.8 					"/>
				</g>
			</g>
			<g>
				<g>
					<polygon class="st1" points="523.4,1085.1 513.6,1090.1 518.6,1080.3 510.8,1072.6 521.6,1074.3 526.6,1064.5 528.4,1075.4 
						539.2,1077.1 529.4,1082 531.2,1092.9 					"/>
				</g>
			</g>
			<g>
				<g>
					<polygon class="st1" points="272,895.6 260.8,896.5 269.4,889.1 265,878.7 274.7,884.6 283.2,877.3 280.6,888.2 290.3,894.1 
						279,895 276.4,905.9 					"/>
				</g>
			</g>
			<g>
				<g>
					<polygon class="st1" points="241.6,531.4 234.5,529.3 241.6,526.9 241.4,519.5 245.9,525.4 252.9,523 248.7,529 253.1,535 
						246,532.8 241.8,538.9 					"/>
				</g>
			</g>
			<g>
				<g>
					<polygon class="st1" points="436,916.8 442,926.5 431.5,922.1 424,930.7 424.9,919.4 414.4,915 425.5,912.4 426.4,901.1 
						432.4,910.8 443.4,908.1 					"/>
				</g>
			</g>
			<g>
				<g>
					<polygon class="st1" points="457,767.8 446.7,771.3 453,762.4 446.5,753.7 456.9,756.9 463.2,748.1 463.3,758.9 473.8,762.2 
						463.4,765.7 463.6,776.5 					"/>
				</g>
			</g>
			<g>
				<g>
					<polygon class="st1" points="1827.5,304 1819.7,296.6 1830.4,298 1835,288.3 1837,298.9 1847.7,300.2 1838.2,305.4 1840.2,316 
						1832.4,308.6 1822.9,313.7 					"/>
				</g>
			</g>
			<g>
				<g>
					<polygon class="st1" points="698.1,1094.8 693,1100.1 694,1092.8 687.3,1089.6 694.6,1088.3 695.6,1081 699.1,1087.5 
						706.4,1086.1 701.3,1091.5 704.8,1098 					"/>
				</g>
			</g>
			<g>
				<g>
					<polygon class="st1" points="1455.4,1227.8 1454.4,1234.3 1451.4,1228.5 1444.9,1229.6 1449.5,1224.9 1446.4,1219.2 
						1452.3,1222 1456.9,1217.3 1455.9,1223.8 1461.8,1226.7 					"/>
				</g>
			</g>
			<g>
				<g>
					<polygon class="st1" points="246.6,956.6 253.1,955.9 248.3,960.3 251,966.2 245.3,963 240.5,967.4 241.8,961 236.1,957.8 
						242.6,957.1 243.9,950.7 					"/>
				</g>
			</g>
			<g>
				<g>
					<polygon class="st1" points="485,526.6 477.8,526 484,522.3 482.4,515.3 487.8,520 494,516.3 491.2,522.9 496.6,527.6 
						489.5,527 486.6,533.6 					"/>
				</g>
			</g>
			<g>
				<g>
					<polygon class="st1" points="870.7,405.2 873.1,415.5 865.1,408.6 856.1,414 860.2,404.3 852.2,397.4 862.8,398.3 866.9,388.6 
						869.3,398.9 879.8,399.8 					"/>
				</g>
			</g>
			<g>
				<g>
					<polygon class="st1" points="149.1,590.7 153.4,586.8 152.2,592.5 157.3,595.3 151.5,596 150.3,601.7 147.9,596.4 142.1,597 
						146.4,593.1 144,587.8 					"/>
				</g>
			</g>
			<g>
				<g>
					<polygon class="st1" points="789.8,867 785.2,857.3 794.6,862.5 802.5,855.1 800.4,865.7 809.9,870.8 799.2,872.2 797.2,882.7 
						792.6,873 781.9,874.3 					"/>
				</g>
			</g>
			<g>
				<g>
					<polygon class="st1" points="944.1,922.5 948.9,921 945.9,925 948.8,929.1 944.1,927.5 941.1,931.5 941.1,926.5 936.4,924.9 
						941.2,923.4 941.2,918.4 					"/>
				</g>
			</g>
			<g>
				<g>
					<polygon class="st1" points="1479.8,1157.5 1474,1153.1 1481.3,1153.3 1483.7,1146.4 1485.8,1153.4 1493.1,1153.5 
						1487.1,1157.7 1489.2,1164.7 1483.4,1160.2 1477.4,1164.4 					"/>
				</g>
			</g>
			<g>
				<g>
					<polygon class="st1" points="880,663 872.1,660.4 880,657.9 880.1,649.6 884.9,656.3 892.8,653.8 887.9,660.5 892.8,667.2 
						884.9,664.6 880,671.3 					"/>
				</g>
			</g>
			<g>
				<g>
					<polygon class="st1" points="1061.1,859.7 1061.1,856.2 1063.1,859.1 1066.5,858 1064.4,860.9 1066.5,863.7 1063.1,862.6 
						1061,865.4 1061,861.9 1057.7,860.8 					"/>
				</g>
			</g>
			<g>
				<g>
					<polygon class="st1" points="347.3,910.6 346.3,916.5 343.7,911.1 337.8,912 342,907.9 339.4,902.5 344.7,905.3 349,901.2 
						347.9,907 353.2,909.8 					"/>
				</g>
			</g>
			<g>
				<g>
					<polygon class="st1" points="1182.8,708.4 1188.8,704.6 1186.2,711.1 1191.6,715.6 1184.6,715.2 1182,721.7 1180.2,714.9 
						1173.2,714.5 1179.1,710.7 1177.4,703.9 					"/>
				</g>
			</g>
			<g>
				<g>
					<polygon class="st1" points="698.8,1226 701.4,1235.8 693.5,1229.3 684.9,1234.8 688.6,1225.4 680.8,1218.9 690.9,1219.5 
						694.7,1210.1 697.2,1219.9 707.4,1220.5 					"/>
				</g>
			</g>
			<g>
				<g>
					<polygon class="st1" points="591,562 593.5,564.5 590,563.9 588.3,567.1 587.8,563.5 584.3,562.9 587.5,561.4 587,557.8 
						589.5,560.4 592.7,558.8 					"/>
				</g>
			</g>
			<g>
				<g>
					<polygon class="st1" points="1086.3,516.4 1091.8,502.8 1095.4,517.1 1110.1,518.1 1097.5,525.9 1101.1,540.2 1089.8,530.7 
						1077.3,538.4 1082.8,524.8 1071.6,515.3 					"/>
				</g>
			</g>
			<g>
				<g>
					<polygon class="st1" points="173.1,1004.7 175.5,997.1 178.1,1004.7 186.1,1004.6 179.7,1009.3 182.3,1016.9 175.7,1012.3 
						169.3,1017 171.7,1009.4 165.1,1004.8 					"/>
				</g>
			</g>
			<g>
				<g>
					<polygon class="st1" points="1471.9,1034.6 1478.9,1032.9 1474.3,1038.4 1478.1,1044.6 1471.4,1041.8 1466.7,1047.4 
						1467.2,1040.2 1460.5,1037.4 1467.6,1035.7 1468.1,1028.5 					"/>
				</g>
			</g>
			<g>
				<g>
					<polygon class="st1" points="907.7,425.5 908.4,420.2 910.9,424.9 916.1,423.9 912.5,427.8 915,432.4 910.2,430.1 906.5,434 
						907.2,428.7 902.4,426.4 					"/>
				</g>
			</g>
			<g>
				<g>
					<polygon class="st1" points="2259.1,401 2259,406 2256.2,401.9 2251.4,403.3 2254.4,399.4 2251.6,395.3 2256.3,397 2259.3,393 
						2259.2,398 2263.8,399.6 					"/>
				</g>
			</g>
			<g>
				<g>
					<polygon class="st1" points="1095.9,686.2 1101.7,687.5 1096.3,689.8 1096.8,695.7 1092.9,691.3 1087.4,693.7 1090.5,688.6 
						1086.5,684.1 1092.3,685.4 1095.4,680.3 					"/>
				</g>
			</g>
			<g>
				<g>
					<polygon class="st1" points="1060.5,572.8 1063.2,571.2 1062,574.1 1064.3,576.1 1061.2,575.8 1060,578.7 1059.3,575.7 
						1056.2,575.4 1058.9,573.8 1058.2,570.7 					"/>
				</g>
			</g>
			<g>
				<g>
					<polygon class="st1" points="1272.2,962.7 1280.3,951.9 1280.1,965.4 1292.9,969.8 1280,973.8 1279.7,987.3 1271.9,976.3 
						1259,980.2 1267.1,969.4 1259.3,958.3 					"/>
				</g>
			</g>
			<g>
				<g>
					<polygon class="st1" points="1164.2,536.7 1164.3,540 1162.3,537.4 1159.2,538.5 1161,535.8 1159,533.2 1162.2,534.1 
						1164,531.3 1164.1,534.6 1167.4,535.5 					"/>
				</g>
			</g>
			<g>
				<g>
					<polygon class="st1" points="1471.5,972.5 1477.4,968 1475.3,975.1 1481.5,979.3 1474.1,979.5 1472,986.7 1469.4,979.7 
						1462,980 1467.9,975.4 1465.3,968.4 					"/>
				</g>
			</g>
			<g>
				<g>
					<polygon class="st1" points="1346.9,994.1 1349.2,986.5 1351.8,994 1359.8,993.8 1353.5,998.7 1356.1,1006.2 1349.5,1001.7 
						1343.2,1006.5 1345.5,998.9 1338.9,994.3 					"/>
				</g>
			</g>
			<g>
				<g>
					<polygon class="st1" points="887.5,723.2 893.4,725 887.6,727.1 887.7,733.2 884,728.3 878.2,730.3 881.7,725.3 877.9,720.4 
						883.9,722.2 887.4,717.1 					"/>
				</g>
			</g>
			<g>
				<g>
					<polygon class="st1" points="298.8,675.1 309.8,669.5 304.2,680.4 313,689.1 300.8,687.2 295.3,698.1 293.3,686 281.1,684.2 
						292.1,678.5 290.1,666.4 					"/>
				</g>
			</g>
			<g>
				<g>
					<polygon class="st1" points="1325.9,1333.7 1321.1,1333.2 1325.2,1330.8 1324.2,1326.1 1327.8,1329.3 1331.9,1326.8 
						1330,1331.2 1333.7,1334.4 1328.9,1334 1327,1338.4 					"/>
				</g>
			</g>
			<g>
				<g>
					<polygon class="st1" points="1083.3,1178.8 1091.4,1182.8 1082.5,1184.4 1081.3,1193.3 1077,1185.3 1068.1,1186.9 
						1074.4,1180.4 1070.1,1172.5 1078.2,1176.4 1084.5,1169.9 					"/>
				</g>
			</g>
			<g>
				<g>
					<polygon class="st1" points="430.3,1094 441.3,1091.9 433.7,1100 439,1109.8 428.9,1105 421.3,1113.2 422.7,1102.1 
						412.6,1097.3 423.6,1095.3 425,1084.2 					"/>
				</g>
			</g>
			<g>
				<g>
					<polygon class="st1" points="186.7,1076.7 185.2,1066 192.7,1073.8 202.3,1069.1 197.3,1078.5 204.7,1086.3 194.1,1084.4 
						189.1,1093.9 187.6,1083.2 177,1081.3 					"/>
				</g>
			</g>
			<g>
				<g>
					<polygon class="st1" points="343.3,719.1 345,713.9 346.7,719.1 352.1,719.1 347.7,722.3 349.4,727.4 345,724.2 340.6,727.4 
						342.3,722.2 337.9,719.1 					"/>
				</g>
			</g>
			<g>
				<g>
					<polygon class="st1" points="1832.9,357.7 1843.4,355.4 1836.2,363.4 1841.7,372.8 1831.8,368.4 1824.6,376.5 1825.7,365.8 
						1815.7,361.5 1826.3,359.1 1827.4,348.4 					"/>
				</g>
			</g>
			<g>
				<g>
					<polygon class="st1" points="707.2,555.6 711.3,547.5 712.8,556.4 721.8,557.8 713.7,562 715.2,570.9 708.7,564.5 700.6,568.7 
						704.7,560.6 698.2,554.2 					"/>
				</g>
			</g>
			<g>
				<g>
					<polygon class="st1" points="1085.4,828.8 1082.4,824.2 1087.6,826.2 1091.1,822 1090.7,827.5 1095.9,829.5 1090.5,830.9 
						1090.2,836.4 1087.2,831.7 1081.9,833.1 					"/>
				</g>
			</g>
			<g>
				<g>
					<polygon class="st1" points="366.5,686.2 369,699 359.5,690.1 348,696.4 353.6,684.6 344,675.7 357,677.3 362.5,665.5 
						365,678.3 378,679.9 					"/>
				</g>
			</g>
			<g>
				<g>
					<polygon class="st1" points="1259.9,444.5 1255.3,451.8 1254.8,443.3 1246.5,441.2 1254.4,438 1253.8,429.5 1259.3,436 
						1267.2,432.8 1262.7,440.1 1268.2,446.6 					"/>
				</g>
			</g>
			<g>
				<g>
					<polygon class="st1" points="933.7,1233 942.3,1226.8 939,1236.8 947.6,1243.1 937,1243 933.7,1253.1 930.4,1243 919.8,1243 
						928.4,1236.8 925.2,1226.7 					"/>
				</g>
			</g>
			<g>
				<g>
					<polygon class="st1" points="341.2,1047.1 346.9,1046 343,1050.2 345.8,1055.2 340.5,1052.8 336.6,1057 337.3,1051.3 
						332.1,1048.9 337.7,1047.8 338.4,1042.1 					"/>
				</g>
			</g>
			<g>
				<g>
					<polygon class="st1" points="635,932.4 639.6,923.6 641,933.4 650.8,935.1 641.9,939.5 643.3,949.3 636.4,942.2 627.5,946.5 
						632.1,937.8 625.2,930.7 					"/>
				</g>
			</g>
			<g>
				<g>
					<polygon class="st1" points="873.2,1003.2 872,996.6 876.9,1001.3 882.8,998.1 879.9,1004.1 884.7,1008.8 878.1,1007.8 
						875.2,1013.9 874,1007.3 867.3,1006.4 					"/>
				</g>
			</g>
			<g>
				<g>
					<polygon class="st1" points="574.9,1123.2 572.3,1130.7 570,1123.1 562.1,1123 568.6,1118.4 566.3,1110.8 572.6,1115.6 
						579.1,1111.1 576.5,1118.6 582.9,1123.4 					"/>
				</g>
			</g>
			<g>
				<g>
					<polygon class="st1" points="333.7,740.6 336.9,749.7 329,744.2 321.4,750.1 324.1,740.9 316.2,735.4 325.8,735.2 328.6,726 
						331.8,735 341.4,734.8 					"/>
				</g>
			</g>
			<g>
				<g>
					<polygon class="st1" points="551.1,585.5 548.2,583.6 551.7,583.4 552.6,580 553.9,583.3 557.4,583.2 554.6,585.4 555.9,588.7 
						552.9,586.7 550.2,588.9 					"/>
				</g>
			</g>
			<g>
				<g>
					<polygon class="st1" points="521,918.7 529.4,918.5 522.7,923.6 525.4,931.6 518.5,926.7 511.7,931.8 514.2,923.7 507.3,918.9 
						515.8,918.7 518.3,910.7 					"/>
				</g>
			</g>
			<g>
				<g>
					<polygon class="st1" points="216.3,1321.1 211.5,1321.2 215.4,1318.3 213.9,1313.7 217.8,1316.5 221.7,1313.7 220.3,1318.3 
						224.2,1321.1 219.3,1321.1 217.9,1325.7 					"/>
				</g>
			</g>
			<g>
				<g>
					<polygon class="st1" points="784.1,1131 790.4,1126.5 788,1133.8 794.2,1138.4 786.5,1138.3 784,1145.6 781.7,1138.3 
						774,1138.2 780.3,1133.8 777.9,1126.4 					"/>
				</g>
			</g>
			<g>
				<g>
					<polygon class="st1" points="243.9,1254.3 245.8,1251.4 246,1254.9 249.4,1255.8 246.1,1257 246.3,1260.5 244.1,1257.8 
						240.9,1259.1 242.8,1256.1 240.6,1253.5 					"/>
				</g>
			</g>
			<g>
				<g>
					<polygon class="st1" points="1447,841.6 1455.7,842.8 1448,846.9 1449.5,855.5 1443.2,849.4 1435.5,853.5 1439.3,845.7 
						1433,839.6 1441.7,840.8 1445.5,833 					"/>
				</g>
			</g>
			<g>
				<g>
					<polygon class="st1" points="446.6,1233.1 444.4,1245.3 439,1234.1 426.7,1235.7 435.7,1227.2 430.3,1216 441.3,1221.9 
						450.3,1213.4 448,1225.6 459,1231.5 					"/>
				</g>
			</g>
			<g>
				<g>
					<polygon class="st1" points="352.2,858 355.2,849.2 358,858.1 367.3,858.2 359.7,863.6 362.5,872.5 355,866.9 347.4,872.3 
						350.4,863.5 342.9,857.9 					"/>
				</g>
			</g>
			<g>
				<g>
					<polygon class="st1" points="769.2,691.8 771.7,697.2 766.5,694.3 762.1,698.4 763.2,692.5 758,689.6 764,688.9 765.1,683.1 
						767.6,688.5 773.6,687.8 					"/>
				</g>
			</g>
			<g>
				<g>
					<polygon class="st1" points="1277.2,532.7 1280.9,536.8 1275.5,535.6 1272.7,540.4 1272.1,534.9 1266.7,533.8 1271.7,531.5 
						1271.2,526 1274.9,530.1 1280,527.9 					"/>
				</g>
			</g>
			<g>
				<g>
					<polygon class="st1" points="836,1057.9 839.8,1051.7 840.3,1059 847.5,1060.8 840.7,1063.5 841.2,1070.8 836.5,1065.2 
						829.7,1068 833.6,1061.8 828.8,1056.2 					"/>
				</g>
			</g>
			<g>
				<g>
					<polygon class="st1" points="578.4,1249.5 577,1257.2 573.6,1250.2 565.8,1251.2 571.5,1245.8 568,1238.8 575,1242.5 
						580.6,1237 579.2,1244.7 586.2,1248.4 					"/>
				</g>
			</g>
			<g>
				<g>
					<polygon class="st1" points="1331.4,865.8 1327.1,866.9 1330,863.5 1327.6,859.8 1331.7,861.4 1334.5,858.1 1334.2,862.5 
						1338.3,864.1 1334,865.2 1333.7,869.5 					"/>
				</g>
			</g>
			<g>
				<g>
					<polygon class="st1" points="1937.8,368.9 1961.2,366.2 1943.8,382.1 1953.6,403.4 1933.1,391.9 1915.7,407.7 1920.4,384.7 
						1899.9,373.2 1923.3,370.5 1928,347.5 					"/>
				</g>
			</g>
			<g>
				<g>
					<polygon class="st1" points="815.5,747.5 815.1,753.6 811.9,748.4 805.9,749.8 809.9,745.2 806.6,740 812.3,742.3 816.2,737.7 
						815.8,743.7 821.5,746 					"/>
				</g>
			</g>
			<g>
				<g>
					<polygon class="st1" points="783.4,499.6 783.2,508.8 778,501.3 769.2,504 774.7,496.7 769.4,489.2 778.1,492.1 783.6,484.8 
						783.5,494 792.1,496.9 					"/>
				</g>
			</g>
			<g>
				<g>
					<polygon class="st1" points="138.5,956.4 141.4,961.1 136.3,959 132.7,963.3 133.1,957.8 127.9,955.7 133.3,954.3 133.6,948.8 
						136.6,953.5 142,952.1 					"/>
				</g>
			</g>
			<g>
				<g>
					<polygon class="st1" points="11,1162.4 5.1,1155.4 14.1,1157.6 19,1149.8 19.6,1159 28.5,1161.2 20,1164.7 20.6,1173.8 
						14.7,1166.8 6.1,1170.2 					"/>
				</g>
			</g>
			<g>
				<g>
					<polygon class="st1" points="69.5,503.1 79.3,506.9 69.1,509.6 68.5,520.1 62.8,511.2 52.5,513.9 59.2,505.8 53.5,496.9 
						63.4,500.7 70.1,492.5 					"/>
				</g>
			</g>
			<g>
				<g>
					<polygon class="st1" points="411.9,516.8 415.1,514.2 414,518.2 417.5,520.5 413.3,520.7 412.2,524.7 410.8,520.8 406.6,521 
						409.9,518.4 408.4,514.5 					"/>
				</g>
			</g>
			<g>
				<g>
					<polygon class="st1" points="1493.1,751.5 1501.7,752.4 1494.2,756.8 1496,765.3 1489.5,759.5 1481.9,763.8 1485.5,755.8 
						1479,750 1487.7,750.9 1491.3,743 					"/>
				</g>
			</g>
			<g>
				<g>
					<polygon class="st1" points="1194.5,777.1 1207.2,779.9 1195.3,785.1 1196.6,797.9 1188,788.3 1176.1,793.5 1182.6,782.3 
						1174,772.7 1186.7,775.4 1193.2,764.3 					"/>
				</g>
			</g>
			<g>
				<g>
					<polygon class="st1" points="1297.8,601.6 1300.8,599.6 1299.6,603 1302.4,605.1 1298.8,605.1 1297.6,608.4 1296.6,605 
						1293,604.9 1296,602.9 1295,599.4 					"/>
				</g>
			</g>
			<g>
				<g>
					<polygon class="st1" points="1089.2,1048.5 1093.8,1050.2 1089.1,1051.5 1088.9,1056.3 1086.2,1052.3 1081.6,1053.6 
						1084.6,1049.8 1081.9,1045.8 1086.4,1047.5 1089.4,1043.7 					"/>
				</g>
			</g>
			<g>
				<g>
					<polygon class="st1" points="926.5,617.3 932.7,622.1 924.8,621.8 922.1,629.2 920,621.6 912.1,621.3 918.6,617 916.5,609.4 
						922.7,614.3 929.2,609.9 					"/>
				</g>
			</g>
			<g>
				<g>
					<polygon class="st1" points="102.1,507.6 97.6,505.4 102.6,504.6 103.3,499.6 105.6,504 110.6,503.2 107.1,506.8 109.4,511.3 
						104.9,509 101.4,512.6 					"/>
				</g>
			</g>
			<g>
				<g>
					<polygon class="st1" points="1072.3,1229.3 1072.8,1225.1 1074.9,1228.8 1079.1,1228 1076.2,1231.1 1078.3,1234.8 1074.4,1233 
						1071.5,1236.2 1072,1231.9 1068.1,1230.2 					"/>
				</g>
			</g>
			<g>
				<g>
					<polygon class="st1" points="1415.9,1221.2 1409.9,1225.3 1412.4,1218.5 1406.6,1214.1 1413.9,1214.3 1416.3,1207.4 
						1418.3,1214.4 1425.6,1214.6 1419.6,1218.7 1421.7,1225.6 					"/>
				</g>
			</g>
			<g>
				<g>
					<polygon class="st1" points="64.3,645.6 68.6,653.8 60.3,649.7 53.8,656.3 55.2,647.1 46.9,643 56,641.5 57.4,632.3 
						61.7,640.5 70.8,639 					"/>
				</g>
			</g>
			<g>
				<g>
					<polygon class="st1" points="71.7,894.7 79.4,904.5 67.4,901.1 60.4,911.4 59.9,899 47.9,895.6 59.7,891.3 59.2,878.8 
						66.9,888.6 78.6,884.3 					"/>
				</g>
			</g>
			<g>
				<g>
					<polygon class="st1" points="1034.5,444.3 1034.1,450.1 1031,445.2 1025.4,446.6 1029.1,442.2 1026.1,437.3 1031.4,439.4 
						1035.1,435 1034.7,440.8 1040.1,442.9 					"/>
				</g>
			</g>
			<g>
				<g>
					<polygon class="st1" points="1005.8,753.9 997.3,747.1 1008.2,747.6 1012,737.4 1014.9,747.9 1025.9,748.4 1016.7,754.4 
						1019.6,764.9 1011.1,758.1 1002,764.1 					"/>
				</g>
			</g>
			<g>
				<g>
					<polygon class="st1" points="1343.9,1148.9 1337.6,1141.2 1347.2,1143.8 1352.7,1135.5 1353.2,1145.4 1362.8,1148 
						1353.5,1151.5 1354,1161.4 1347.8,1153.7 1338.4,1157.3 					"/>
				</g>
			</g>
			<g>
				<g>
					<polygon class="st1" points="574.9,703.7 567.8,709.5 570.2,700.6 562.5,695.6 571.6,695.1 574.1,686.3 577.3,694.9 
						586.5,694.4 579.3,700.2 582.6,708.7 					"/>
				</g>
			</g>
			<g>
				<g>
					<polygon class="st1" points="189.6,1134 187.7,1129.1 192.1,1131.9 196.2,1128.6 194.8,1133.7 199.2,1136.6 194,1136.8 
						192.6,1141.9 190.7,1137 185.5,1137.2 					"/>
				</g>
			</g>
			<g>
				<g>
					<polygon class="st1" points="224.9,861.2 222,857.1 226.8,858.7 229.8,854.7 229.7,859.7 234.4,861.4 229.6,862.8 229.5,867.8 
						226.7,863.7 221.9,865.1 					"/>
				</g>
			</g>
			<g>
				<g>
					<polygon class="st1" points="1481.7,409.2 1485.9,401.4 1487.1,410.1 1495.8,411.7 1487.8,415.6 1489.1,424.4 1482.9,418 
						1474.9,421.8 1479.1,414 1472.9,407.6 					"/>
				</g>
			</g>
			<g>
				<g>
					<polygon class="st1" points="953.1,401.2 962.2,397 957.3,405.7 964.1,413 954.3,411.1 949.5,419.8 948.3,409.9 938.5,407.9 
						947.5,403.8 946.3,393.9 					"/>
				</g>
			</g>
			<g>
				<g>
					<polygon class="st1" points="1137.9,780.4 1133.7,787 1133.2,779.2 1125.7,777.4 1132.9,774.5 1132.3,766.7 1137.3,772.7 
						1144.5,769.8 1140.4,776.4 1145.4,782.3 					"/>
				</g>
			</g>
			<g>
				<g>
					<polygon class="st1" points="282.8,604.6 279.2,615.6 275.6,604.5 263.9,604.5 273.4,597.7 269.8,586.6 279.2,593.5 
						288.7,586.7 285.1,597.7 294.5,604.6 					"/>
				</g>
			</g>
			<g>
				<g>
					<polygon class="st1" points="1405.9,1300.5 1410.2,1307.6 1402.5,1304.3 1397,1310.6 1397.7,1302.3 1390.1,1299 1398.2,1297.2 
						1399,1288.8 1403.3,1296 1411.4,1294.2 					"/>
				</g>
			</g>
			<g>
				<g>
					<polygon class="st1" points="978.2,472.2 990.6,471 981.3,479.2 986.2,490.5 975.5,484.3 966.3,492.5 968.9,480.4 958.2,474.1 
						970.6,472.9 973.3,460.8 					"/>
				</g>
			</g>
		</g>
	</g>
</g>
</svg>
